<svg xmlns="http://www.w3.org/2000/svg" xmlns:xlink="http://www.w3.org/1999/xlink" preserveAspectRatio="xMidYMid" width="26" height="20" viewBox="0 0 26 20">
  <symbol id="icon">
    <path d="M26.000,6.000 L22.000,6.000 L22.000,10.000 L20.000,10.000 L20.000,6.000 L16.000,6.000 L16.000,4.000 L20.000,4.000 L20.000,0.000 L22.000,0.000 L22.000,4.000 L26.000,4.000 L26.000,6.000 ZM15.910,20.009 C15.601,20.009 15.348,19.924 15.149,19.754 C14.950,19.585 14.807,19.374 14.719,19.122 L13.289,14.834 L5.359,14.834 L3.930,19.122 C3.859,19.345 3.720,19.549 3.512,19.733 C3.305,19.917 3.051,20.009 2.751,20.009 L-0.016,20.009 L7.504,-0.010 L11.144,-0.010 L18.664,20.009 L15.910,20.009 ZM10.046,6.080 C9.940,5.771 9.823,5.405 9.695,4.983 C9.567,4.562 9.441,4.104 9.318,3.609 C9.194,4.104 9.073,4.564 8.953,4.990 C8.834,5.417 8.717,5.790 8.603,6.110 L6.273,12.072 L12.376,12.072 L10.046,6.080 Z" class="cls-1"/>
  </symbol>
</svg>
