<svg xmlns="http://www.w3.org/2000/svg" xmlns:xlink="http://www.w3.org/1999/xlink" width="248" height="248" viewBox="0 0 248 248">
  <metadata><?xpacket begin="﻿" id="W5M0MpCehiHzreSzNTczkc9d"?>
<x:xmpmeta xmlns:x="adobe:ns:meta/" x:xmptk="Adobe XMP Core 5.6-c138 79.159824, 2016/09/14-01:09:01        ">
   <rdf:RDF xmlns:rdf="http://www.w3.org/1999/02/22-rdf-syntax-ns#">
      <rdf:Description rdf:about=""/>
   </rdf:RDF>
</x:xmpmeta>
                                                                                                    
                                                                                                    
                                                                                                    
                                                                                                    
                                                                                                    
                                                                                                    
                                                                                                    
                                                                                                    
                                                                                                    
                                                                                                    
                                                                                                    
                                                                                                    
                                                                                                    
                                                                                                    
                                                                                                    
                                                                                                    
                                                                                                    
                                                                                                    
                                                                                                    
                                                                                                    
                           
<?xpacket end="w"?></metadata>
<defs>
    <style>
      .cls-1 {
        fill: #fff;
        filter: url(#filter);
      }

      .cls-2 {
        fill: #715348;
        fill-opacity: 0.9;
        fill-rule: evenodd;
      }
    </style>
    <filter id="filter" x="0" y="0" width="248" height="248" filterUnits="userSpaceOnUse">
      <feOffset result="offset" dy="14" in="SourceAlpha"/>
      <feGaussianBlur result="blur" stdDeviation="16.164"/>
      <feFlood result="flood" flood-color="#edbb3b"/>
      <feComposite result="composite" operator="in" in2="blur"/>
      <feBlend result="blend" in="SourceGraphic"/>
    </filter>
  </defs>
  <rect id="Rounded_Rectangle_4" data-name="Rounded Rectangle 4" class="cls-1" x="37" y="23" width="173" height="173" rx="30" ry="30"/>
  <path class="cls-2" d="M670.285,88.971V88.9H553.621v0.044a16.913,16.913,0,0,0-2.348,33.483,2.747,2.747,0,0,0,1.009-5.4,11.428,11.428,0,0,1,2.19-22.633h6.956v69.351a2.735,2.735,0,1,0,5.47,0V115.227a9.232,9.232,0,1,1,18.463,0l0-.006v74.387a2.736,2.736,0,1,0,5.471,0V115.221l0,0.006a9.232,9.232,0,1,1,18.463,0v74.839a2.735,2.735,0,1,0,5.47,0V115.227a9.232,9.232,0,1,1,18.463,0v74.386a2.736,2.736,0,1,0,5.471,0V115.227a9.232,9.232,0,1,1,18.463,0v48.518a2.735,2.735,0,1,0,5.47,0V94.394h6.285a11.428,11.428,0,0,1,2.191,22.633,2.747,2.747,0,0,0,1.009,5.4A16.919,16.919,0,0,0,670.285,88.971Zm-13.123,14.782a14.614,14.614,0,0,0-21.2,2.929,14.625,14.625,0,0,0-23.934,0,14.624,14.624,0,0,0-23.933,0,14.615,14.615,0,0,0-21.2-2.929V94.394h90.264v9.359Z" transform="translate(-488 -28)"/>
</svg>
