<svg xmlns="http://www.w3.org/2000/svg" width="210" height="148" viewBox="0 0 210 148">
  <metadata><?xpacket begin="﻿" id="W5M0MpCehiHzreSzNTczkc9d"?>
<x:xmpmeta xmlns:x="adobe:ns:meta/" x:xmptk="Adobe XMP Core 5.6-c138 79.159824, 2016/09/14-01:09:01        ">
   <rdf:RDF xmlns:rdf="http://www.w3.org/1999/02/22-rdf-syntax-ns#">
      <rdf:Description rdf:about=""/>
   </rdf:RDF>
</x:xmpmeta>
                                                                                                    
                                                                                                    
                                                                                                    
                                                                                                    
                                                                                                    
                                                                                                    
                                                                                                    
                                                                                                    
                                                                                                    
                                                                                                    
                                                                                                    
                                                                                                    
                                                                                                    
                                                                                                    
                                                                                                    
                                                                                                    
                                                                                                    
                                                                                                    
                                                                                                    
                                                                                                    
                           
<?xpacket end="w"?></metadata>
<defs>
    <style>
      .cls-1 {
        fill: #715348;
        fill-opacity: 0.9;
        fill-rule: evenodd;
      }
    </style>
  </defs>
  <path class="cls-1" d="M1522.95,488.086v-0.1H1357.77v0.062a24.091,24.091,0,0,0-3.35,47.693,3.913,3.913,0,0,0,1.44-7.691,16.279,16.279,0,0,1,3.12-32.24h8.91V594.6a3.9,3.9,0,1,0,7.79,0v-69.11a13.15,13.15,0,1,1,26.3,0v105.95a3.9,3.9,0,1,0,7.79,0V525.486a13.15,13.15,0,1,1,26.3,0v106.6a3.9,3.9,0,1,0,7.79,0v-106.6a13.15,13.15,0,1,1,26.3,0V631.443a3.9,3.9,0,1,0,7.79,0V525.486a13.15,13.15,0,1,1,26.3,0V594.6a3.9,3.9,0,1,0,7.8,0V495.811H1521a16.279,16.279,0,0,1,3.12,32.24,3.913,3.913,0,0,0,1.44,7.691A24.1,24.1,0,0,0,1522.95,488.086Zm-18.7,21.056a20.811,20.811,0,0,0-30.19,4.172,20.83,20.83,0,0,0-34.09,0,20.83,20.83,0,0,0-34.09,0,20.822,20.822,0,0,0-30.2-4.172V495.811h128.57v13.331Z" transform="translate(-1335 -488)"/>
</svg>
