<svg xmlns="http://www.w3.org/2000/svg" xmlns:xlink="http://www.w3.org/1999/xlink" preserveAspectRatio="xMidYMid" width="30" height="30" viewBox="0 0 30 30">
  <defs>
    <style>
      .cls-1 {
        fill: #8e8e8e;
        fill-rule: evenodd;
      }
    </style>
  </defs>
  <path d="M17.235,14.999 L29.530,27.294 C30.147,27.911 30.147,28.912 29.530,29.530 C28.912,30.147 27.911,30.147 27.294,29.530 L14.999,17.235 L2.704,29.530 C2.087,30.147 1.086,30.147 0.469,29.530 C-0.149,28.912 -0.149,27.911 0.469,27.294 L12.764,14.999 L0.469,2.704 C-0.149,2.087 -0.149,1.086 0.469,0.469 C1.086,-0.149 2.087,-0.149 2.704,0.469 L14.999,12.764 L27.294,0.469 C27.911,-0.149 28.912,-0.149 29.530,0.469 C30.147,1.086 30.147,2.087 29.530,2.704 L17.235,14.999 Z" class="cls-1"/>
</svg>
