<svg xmlns="http://www.w3.org/2000/svg" xmlns:xlink="http://www.w3.org/1999/xlink" preserveAspectRatio="xMidYMid" width="40" height="28" viewBox="0 0 40 28">
  <defs>
    <style>
      .cls-1 {
        fill: #8e8e8e;
        fill-rule: evenodd;
      }
    </style>
  </defs>
  <path d="M38.000,4.000 L2.000,4.000 C0.895,4.000 0.000,3.105 0.000,2.000 C0.000,0.895 0.895,-0.000 2.000,-0.000 L38.000,-0.000 C39.105,-0.000 40.000,0.895 40.000,2.000 C40.000,3.105 39.105,4.000 38.000,4.000 ZM2.000,12.000 L27.000,12.000 C28.105,12.000 29.000,12.895 29.000,14.000 C29.000,15.105 28.105,16.000 27.000,16.000 L2.000,16.000 C0.895,16.000 0.000,15.105 0.000,14.000 C0.000,12.895 0.895,12.000 2.000,12.000 ZM2.000,24.000 L34.000,24.000 C35.105,24.000 36.000,24.895 36.000,26.000 C36.000,27.105 35.105,28.000 34.000,28.000 L2.000,28.000 C0.895,28.000 0.000,27.105 0.000,26.000 C0.000,24.895 0.895,24.000 2.000,24.000 Z" class="cls-1"/>
</svg>
