<?xml version="1.0" encoding="utf-8"?>
<!-- Generator: Adobe Illustrator 19.0.0, SVG Export Plug-In . SVG Version: 6.00 Build 0)  -->
<svg version="1.1" id="Layer_1" xmlns="http://www.w3.org/2000/svg" xmlns:xlink="http://www.w3.org/1999/xlink" x="0px" y="0px"
	 width="117px" height="75.7px" viewBox="-167 383.1 117 75.7" style="enable-background:new -167 383.1 117 75.7;"
	 xml:space="preserve">
<style type="text/css">
	.st0{fill:#3DB054;}
	.st1{fill:#AD58D5;}
</style>
<g>
	<path class="st0" d="M-388.2,818.9c-0.8,0.5-2.2,0.3-2.9-0.2c-0.6-0.5-0.5-1.1,0.3-1.5c0.7-0.3,1.8-0.2,2.5,0.1
		C-387.6,817.8-387.4,818.5-388.2,818.9"/>
	<path class="st0" d="M-392.1,816.8c-0.1,0.5-0.9,0.9-1.8,0.9s-1.5-0.4-1.2-0.9c0.2-0.4,1-0.7,1.7-0.7
		C-392.7,816.1-392,816.4-392.1,816.8"/>
	<path class="st0" d="M-396.6,817.1c0.5,0.3,0.3,0.9-0.6,1.3c-0.9,0.5-2.1,0.6-2.5,0.2c-0.4-0.4,0.1-1,0.9-1.4
		C-398,816.9-397.1,816.8-396.6,817.1"/>
	<path class="st0" d="M-401.1,819.7c1.1-0.1,1.8,0.4,1.4,1.2c-0.4,1-2,2.1-3.5,2.3s-2-0.6-1.2-1.7
		C-403.6,820.6-402.2,819.8-401.1,819.7"/>
	<path class="st0" d="M-403.4,825.3c1.6-1.4,3.5-1.8,4.4-1.1c1.1,0.8,0.9,2.9-0.8,5c-2.1,2.5-5,3.5-6,1.8
		C-406.6,829.5-405.3,826.9-403.4,825.3"/>
	<path class="st0" d="M-396.5,829.9c-0.2-2.4,1.1-4.5,2.7-5.1c1.6-0.6,3.4,0.1,4.3,1.9c1.2,2.3,0.6,5.5-1.7,6.8
		C-393.7,834.9-396.2,832.9-396.5,829.9"/>
	<path class="st0" d="M-385.5,820.4c0.8,0.5,1.4,1.7,1.2,2.6c-0.1,0.8-0.8,1-1.4,0.5c-0.6-0.5-1.1-1.4-1.1-2.2
		C-386.8,820.4-386.3,819.9-385.5,820.4"/>
	<path class="st0" d="M-385.4,824.8c0.4-0.2,1.2,0.3,1.7,1.1s0.4,1.5-0.1,1.5s-1.1-0.5-1.5-1.1
		C-385.7,825.6-385.8,824.9-385.4,824.8"/>
	<path class="st0" d="M-382.9,828.5c0-0.6,0.6-0.7,1.5-0.2c0.9,0.6,1.5,1.5,1.4,2.1c-0.1,0.5-0.9,0.4-1.6-0.1
		C-382.4,829.8-382.9,829-382.9,828.5"/>
	<path class="st0" d="M-378.4,831.1c-0.7-0.9-0.6-1.7,0.3-1.8c1.1-0.1,2.8,0.7,3.7,1.9s0.5,2-0.9,1.9
		C-376.3,832.9-377.7,832-378.4,831.1"/>
	<path class="st0" d="M-372.4,830.3c-2-0.7-3.3-2.1-3.2-3.3c0.2-1.3,2.1-2.2,4.7-1.8c3.2,0.5,5.5,2.6,4.5,4.3
		C-367.2,831-370.1,831.2-372.4,830.3"/>
	<path class="st0" d="M-371.9,822.1c-2,1.4-4.4,1.3-5.8,0.2c-1.3-1.1-1.6-3-0.5-4.7c1.4-2.1,4.5-3.3,6.8-2
		C-368.9,817.1-369.4,820.3-371.9,822.1"/>
	<path class="st0" d="M-385.6,817.3c0-0.9,0.8-2.1,1.6-2.4s1.2,0.2,1.1,1s-0.7,1.7-1.4,2.1C-384.9,818.4-385.6,818.2-385.6,817.3"/>
	<path class="st0" d="M-381.9,815c-0.4-0.3-0.3-1.2,0.1-2c0.5-0.8,1.1-1.1,1.4-0.6c0.3,0.4,0.1,1.2-0.2,1.9
		C-380.9,814.9-381.5,815.2-381.9,815"/>
	<path class="st0" d="M-379.9,810.9c-0.5,0.3-0.9-0.2-0.9-1.2s0.6-2.1,1.1-2.3c0.5-0.1,0.8,0.6,0.7,1.5
		C-379,809.8-379.4,810.7-379.9,810.9"/>
	<path class="st0" d="M-379.8,805.8c-0.4,1-1.2,1.4-1.8,0.6c-0.7-0.8-0.8-2.8-0.3-4.2c0.6-1.4,1.5-1.4,2-0.2
		C-379.4,803.1-379.4,804.7-379.8,805.8"/>
	<path class="st0" d="M-383.5,801c0.4,2.1-0.2,3.9-1.3,4.4c-1.2,0.5-3-0.7-3.9-3.2c-1.2-3.1-0.5-6.1,1.4-6.1
		C-385.6,796.1-384,798.5-383.5,801"/>
	<path class="st0" d="M-391,804.6c2.2,1,3.4,3.2,3.1,4.9c-0.3,1.7-1.8,2.9-3.8,2.8c-2.5-0.1-5.1-2.2-5.1-4.9
		C-396.8,804.6-393.8,803.4-391,804.6"/>
	<path d="M-354.6,811.5v5.7h4.2c1.2,0,2.2-0.2,2.7-0.7c0.6-0.5,0.9-1.2,0.9-2.2s-0.3-1.7-0.9-2.2c-0.6-0.5-1.5-0.7-2.7-0.7
		L-354.6,811.5L-354.6,811.5z M-354.6,820.2v7.5h-3.1v-19h7.4c2.2,0,3.8,0.5,5,1.5s1.7,2.4,1.7,4.2s-0.6,3.2-1.7,4.2
		c-1.2,1-2.8,1.5-5,1.5L-354.6,820.2L-354.6,820.2z"/>
	<path d="M-335.6,816.8c-1,0-1.8,0.3-2.3,0.9c-0.6,0.6-1,1.4-1.1,2.3h6.7c-0.2-1-0.5-1.8-1.1-2.4
		C-333.9,817.1-334.7,816.8-335.6,816.8 M-335.5,814.3c1.8,0,3.3,0.6,4.4,1.9s1.7,2.9,1.7,4.9c0,0.4,0,0.8-0.1,1.1h-9.5
		c0.2,1.1,0.6,1.9,1.3,2.5c0.7,0.6,1.6,0.8,2.5,0.8c1.4,0,2.6-0.5,3.8-1.4l1.4,2c-1.4,1.2-3.2,1.8-5.3,1.8c-2,0-3.6-0.6-4.8-1.9
		c-1.2-1.3-1.9-2.8-1.9-4.9c0-2,0.6-3.7,1.8-4.9C-339,814.9-337.4,814.3-335.5,814.3"/>
	<path d="M-320.7,816.8c-1,0-1.8,0.3-2.3,0.9c-0.6,0.6-1,1.4-1.1,2.3h6.7c-0.2-1-0.5-1.8-1.1-2.4
		C-319.1,817.1-319.8,816.8-320.7,816.8 M-320.7,814.3c1.8,0,3.3,0.6,4.4,1.9c1.1,1.3,1.7,2.9,1.7,4.9c0,0.4,0,0.8-0.1,1.1h-9.6
		c0.2,1.1,0.6,1.9,1.3,2.5s1.6,0.8,2.5,0.8c1.4,0,2.6-0.5,3.8-1.4l1.4,2c-1.4,1.2-3.2,1.8-5.3,1.8c-2,0-3.6-0.6-4.8-1.9
		c-1.2-1.3-1.9-2.9-1.9-5c0-2,0.6-3.7,1.8-4.9C-324.1,814.9-322.6,814.3-320.7,814.3"/>
	<path d="M-304.9,814.3c0.8,0,1.6,0.1,2.2,0.4l-0.7,2.8c-0.6-0.3-1.3-0.5-2.2-0.5s-1.7,0.3-2.2,0.9c-0.6,0.6-0.9,1.5-0.9,2.6v7.1
		h-2.8v-13h2.8v1.5C-307.8,814.9-306.6,814.3-304.9,814.3"/>
</g>
<path d="M-297.3,819.9h6.3l-3.2-8.2L-297.3,819.9z M-284.7,827.6h-3.3l-1.9-4.8h-8.6l-1.9,4.8h-3.2l7.5-19h3.8L-284.7,827.6z"/>
<g>
	<path d="M-273.1,817.9c-0.5-0.3-1.1-0.5-1.8-0.8c-0.7-0.2-1.5-0.3-2.2-0.3c-0.8,0-1.4,0.1-1.8,0.4c-0.4,0.3-0.6,0.7-0.6,1.1
		c0,0.4,0.2,0.7,0.5,0.9c0.4,0.2,0.9,0.3,1.6,0.4l1.3,0.2c3,0.4,4.5,1.7,4.5,3.8c0,1.3-0.5,2.3-1.6,3.1c-1,0.8-2.5,1.2-4.3,1.2
		c-0.9,0-1.8-0.1-2.8-0.4c-1-0.2-1.9-0.7-2.8-1.3l1.3-2.1c1.1,0.9,2.6,1.3,4.3,1.3c1,0,1.7-0.1,2.2-0.4s0.8-0.7,0.8-1.2
		c0-0.8-0.8-1.2-2.3-1.4l-1.4-0.2c-1.4-0.2-2.5-0.6-3.3-1.3c-0.7-0.6-1.1-1.5-1.1-2.5c0-1.3,0.5-2.3,1.4-3c1-0.7,2.3-1.1,3.9-1.1
		c2.1,0,3.8,0.5,5.3,1.4L-273.1,817.9z"/>
	<path d="M-259.8,817.9c-0.5-0.3-1.1-0.5-1.8-0.8c-0.7-0.2-1.5-0.3-2.2-0.3c-0.8,0-1.4,0.1-1.8,0.4s-0.7,0.7-0.7,1.1
		c0,0.4,0.2,0.7,0.5,0.9c0.4,0.2,0.9,0.3,1.6,0.4l1.3,0.2c3,0.4,4.5,1.7,4.5,3.8c0,1.3-0.5,2.3-1.6,3.1c-1,0.8-2.5,1.2-4.3,1.2
		c-0.9,0-1.8-0.1-2.8-0.4c-1-0.2-1.9-0.7-2.8-1.3l1.3-2.1c1.1,0.9,2.6,1.3,4.3,1.3c1,0,1.7-0.1,2.2-0.4s0.8-0.7,0.8-1.2
		c0-0.8-0.8-1.2-2.3-1.4l-1.4-0.2c-1.4-0.2-2.5-0.6-3.3-1.3c-0.7-0.6-1.1-1.5-1.1-2.5c0-1.3,0.5-2.3,1.4-3c1-0.7,2.3-1.1,3.9-1.1
		c2.1,0,3.8,0.5,5.3,1.4L-259.8,817.9z"/>
	<path d="M-249.8,816.8c-1,0-1.8,0.3-2.3,0.9c-0.6,0.6-1,1.4-1.1,2.3h6.7c-0.2-1-0.5-1.8-1.1-2.4
		C-248.2,817.1-248.9,816.8-249.8,816.8 M-249.8,814.3c1.8,0,3.3,0.6,4.4,1.9c1.1,1.3,1.7,2.9,1.7,4.9c0,0.4,0,0.8-0.1,1.1h-9.6
		c0.2,1.1,0.6,1.9,1.3,2.5s1.6,0.8,2.5,0.8c1.4,0,2.6-0.5,3.8-1.4l1.4,2c-1.4,1.2-3.2,1.8-5.3,1.8c-2,0-3.6-0.6-4.8-1.9
		s-1.8-2.9-1.8-5c0-2,0.6-3.7,1.8-4.9C-253.2,814.9-251.7,814.3-249.8,814.3"/>
	<path d="M-231.7,817.2h-5v5.7c0,0.8,0.2,1.4,0.6,1.8c0.4,0.4,0.9,0.6,1.5,0.6c0.8,0,1.7-0.3,2.6-0.9l1.1,2.3
		c-1.3,0.9-2.6,1.3-4,1.3c-1.5,0-2.7-0.4-3.5-1.2s-1.2-2.1-1.2-3.8v-5.7h-2.6v-2.6h2.6v-3.9h2.8v3.9h5L-231.7,817.2L-231.7,817.2z"
		/>
	<path d="M-219.2,817.9c-0.5-0.3-1.1-0.5-1.8-0.8c-0.7-0.2-1.5-0.3-2.2-0.3c-0.8,0-1.4,0.1-1.8,0.4c-0.4,0.3-0.7,0.7-0.7,1.1
		c0,0.4,0.2,0.7,0.5,0.9c0.4,0.2,0.9,0.3,1.6,0.4l1.3,0.2c3,0.4,4.5,1.7,4.5,3.8c0,1.3-0.5,2.3-1.6,3.1c-1,0.8-2.5,1.2-4.3,1.2
		c-0.9,0-1.8-0.1-2.8-0.4c-1-0.2-1.9-0.7-2.8-1.3l1.3-2.1c1.1,0.9,2.6,1.3,4.3,1.3c1,0,1.7-0.1,2.2-0.4s0.8-0.7,0.8-1.2
		c0-0.8-0.8-1.2-2.3-1.4l-1.4-0.2c-1.4-0.2-2.5-0.6-3.3-1.3c-0.7-0.6-1.1-1.5-1.1-2.5c0-1.3,0.5-2.3,1.4-3c1-0.7,2.3-1.1,3.9-1.1
		c2.1,0,3.8,0.5,5.3,1.4L-219.2,817.9z"/>
</g>
<g>
	<path class="st0" d="M-335.9,834.8h1.4c0.1,0,0.3,0,0.4,0.1c0.1,0.1,0.2,0.2,0.2,0.3l2.5,8.5c0,0.2,0.1,0.3,0.1,0.5
		c0,0.2,0.1,0.4,0.1,0.6c0-0.2,0.1-0.4,0.1-0.6c0-0.2,0.1-0.3,0.1-0.5l2.9-8.5c0-0.1,0.1-0.2,0.2-0.3c0.1-0.1,0.2-0.1,0.4-0.1h0.5
		c0.1,0,0.3,0,0.4,0.1c0.1,0.1,0.2,0.2,0.2,0.3l2.8,8.5c0.1,0.3,0.2,0.6,0.3,1c0-0.2,0.1-0.4,0.1-0.5s0.1-0.3,0.1-0.5l2.5-8.5
		c0-0.1,0.1-0.2,0.2-0.3s0.2-0.1,0.4-0.1h1.3l-3.8,12.2h-1.5l-3.1-9.3c-0.1-0.2-0.1-0.4-0.2-0.6c0,0.1-0.1,0.2-0.1,0.3
		c0,0.1-0.1,0.2-0.1,0.3l-3.1,9.3h-1.5L-335.9,834.8z"/>
	<path class="st0" d="M-317.4,847v-12.5h1.5v5.1c0.4-0.4,0.8-0.7,1.2-0.9s1-0.4,1.5-0.4c0.5,0,0.9,0.1,1.2,0.2
		c0.4,0.2,0.7,0.4,0.9,0.7s0.4,0.6,0.5,1c0.1,0.4,0.2,0.8,0.2,1.3v5.5h-1.5v-5.5c0-0.7-0.1-1.2-0.4-1.5c-0.3-0.4-0.8-0.5-1.4-0.5
		c-0.4,0-0.9,0.1-1.3,0.3c-0.4,0.2-0.7,0.5-1.1,0.9v6.3H-317.4z"/>
	<path class="st0" d="M-306,835.7c0,0.1,0,0.3-0.1,0.4c-0.1,0.1-0.1,0.2-0.2,0.3c-0.1,0.1-0.2,0.2-0.3,0.2c-0.1,0.1-0.3,0.1-0.4,0.1
		s-0.3,0-0.4-0.1c-0.1-0.1-0.2-0.1-0.3-0.2c-0.1-0.1-0.2-0.2-0.2-0.3c-0.1-0.1-0.1-0.3-0.1-0.4s0-0.3,0.1-0.4
		c0.1-0.1,0.1-0.2,0.2-0.3c0.1-0.1,0.2-0.2,0.3-0.2c0.1-0.1,0.3-0.1,0.4-0.1s0.3,0,0.4,0.1c0.1,0.1,0.2,0.1,0.3,0.2
		c0.1,0.1,0.2,0.2,0.2,0.3C-306,835.4-306,835.5-306,835.7z M-306.3,838.4v8.6h-1.5v-8.6H-306.3z"/>
	<path class="st0" d="M-301,847.1c-0.7,0-1.2-0.2-1.6-0.6s-0.5-0.9-0.5-1.6v-5.3h-1c-0.1,0-0.2,0-0.2-0.1s-0.1-0.1-0.1-0.3v-0.6
		l1.4-0.2l0.3-2.7c0-0.1,0-0.2,0.1-0.2s0.1-0.1,0.2-0.1h0.8v3h2.5v1.1h-2.5v5.2c0,0.4,0.1,0.6,0.3,0.8s0.4,0.3,0.7,0.3
		c0.2,0,0.3,0,0.4-0.1c0.1,0,0.2-0.1,0.3-0.1c0.1-0.1,0.2-0.1,0.2-0.1c0.1,0,0.1-0.1,0.2-0.1c0.1,0,0.2,0,0.2,0.1l0.4,0.7
		c-0.3,0.2-0.6,0.4-0.9,0.6S-300.6,847.1-301,847.1z"/>
	<path class="st0" d="M-293.9,838.2c0.5,0,1,0.1,1.4,0.3s0.8,0.4,1.1,0.7s0.6,0.7,0.7,1.2c0.2,0.5,0.3,1,0.3,1.6
		c0,0.2,0,0.4-0.1,0.5c-0.1,0.1-0.1,0.1-0.3,0.1h-5.7c0,0.5,0.1,1,0.2,1.4c0.1,0.4,0.3,0.7,0.6,1c0.2,0.3,0.5,0.5,0.8,0.6
		c0.3,0.1,0.7,0.2,1.1,0.2c0.4,0,0.7,0,1-0.1c0.3-0.1,0.5-0.2,0.7-0.3c0.2-0.1,0.4-0.2,0.5-0.3s0.2-0.1,0.3-0.1c0.1,0,0.2,0,0.3,0.1
		l0.4,0.6c-0.2,0.2-0.4,0.4-0.7,0.6s-0.5,0.3-0.8,0.4c-0.3,0.1-0.6,0.2-0.9,0.2s-0.6,0.1-0.9,0.1c-0.6,0-1.1-0.1-1.6-0.3
		c-0.5-0.2-0.9-0.5-1.3-0.9c-0.4-0.4-0.7-0.9-0.9-1.4c-0.2-0.6-0.3-1.2-0.3-2c0-0.6,0.1-1.2,0.3-1.7c0.2-0.5,0.4-1,0.8-1.4
		c0.3-0.4,0.8-0.7,1.3-0.9C-295.1,838.3-294.5,838.2-293.9,838.2z M-293.8,839.3c-0.7,0-1.3,0.2-1.7,0.6c-0.4,0.4-0.7,1-0.8,1.8h4.7
		c0-0.4,0-0.7-0.1-1s-0.2-0.5-0.4-0.8c-0.2-0.2-0.4-0.4-0.7-0.5C-293.2,839.4-293.5,839.3-293.8,839.3z"/>
	<path class="st0" d="M-286.3,842.4v4.6h-1.6v-12.2h3.6c0.8,0,1.4,0.1,2,0.3c0.6,0.2,1,0.4,1.4,0.8c0.4,0.3,0.7,0.7,0.8,1.2
		c0.2,0.5,0.3,1,0.3,1.6c0,0.6-0.1,1.1-0.3,1.6c-0.2,0.5-0.5,0.9-0.9,1.2c-0.4,0.3-0.9,0.6-1.4,0.8c-0.6,0.2-1.2,0.3-1.9,0.3H-286.3
		z M-286.3,841.1h2c0.5,0,0.9-0.1,1.2-0.2c0.4-0.1,0.7-0.3,0.9-0.5c0.2-0.2,0.4-0.5,0.6-0.8c0.1-0.3,0.2-0.7,0.2-1
		c0-0.8-0.2-1.4-0.7-1.8c-0.5-0.4-1.2-0.7-2.2-0.7h-2V841.1z"/>
	<path class="st0" d="M-272.1,847h-0.7c-0.1,0-0.3,0-0.4-0.1c-0.1,0-0.1-0.1-0.2-0.3l-0.2-0.8c-0.2,0.2-0.4,0.4-0.7,0.5
		c-0.2,0.2-0.4,0.3-0.7,0.4c-0.2,0.1-0.5,0.2-0.8,0.3c-0.3,0.1-0.6,0.1-0.9,0.1c-0.3,0-0.6,0-0.9-0.1s-0.5-0.2-0.8-0.4
		c-0.2-0.2-0.4-0.4-0.5-0.7c-0.1-0.3-0.2-0.6-0.2-1c0-0.3,0.1-0.7,0.3-1s0.5-0.6,0.9-0.8c0.4-0.2,1-0.4,1.6-0.6
		c0.7-0.2,1.5-0.2,2.5-0.2v-0.7c0-0.7-0.1-1.2-0.4-1.5c-0.3-0.3-0.7-0.5-1.3-0.5c-0.4,0-0.7,0-0.9,0.1c-0.3,0.1-0.5,0.2-0.7,0.3
		c-0.2,0.1-0.3,0.2-0.5,0.3c-0.1,0.1-0.3,0.1-0.4,0.1c-0.1,0-0.2,0-0.3-0.1s-0.1-0.1-0.2-0.2l-0.3-0.5c0.5-0.5,1-0.8,1.5-1
		c0.5-0.2,1.2-0.3,1.8-0.3c0.5,0,0.9,0.1,1.3,0.2s0.7,0.4,0.9,0.7c0.3,0.3,0.4,0.6,0.6,1c0.1,0.4,0.2,0.8,0.2,1.3V847z M-276,846
		c0.3,0,0.5,0,0.7-0.1c0.2-0.1,0.4-0.1,0.6-0.2c0.2-0.1,0.4-0.2,0.6-0.4s0.4-0.3,0.5-0.5v-1.8c-0.7,0-1.3,0-1.8,0.1
		c-0.5,0.1-0.9,0.2-1.2,0.3c-0.3,0.1-0.5,0.3-0.7,0.5c-0.1,0.2-0.2,0.4-0.2,0.7c0,0.2,0,0.4,0.1,0.6c0.1,0.2,0.2,0.3,0.3,0.4
		c0.1,0.1,0.3,0.2,0.4,0.2C-276.4,846-276.2,846-276,846z"/>
	<path class="st0" d="M-269.8,849.9v-11.5h0.9c0.2,0,0.4,0.1,0.4,0.3l0.1,1c0.4-0.4,0.8-0.8,1.3-1.1c0.5-0.3,1-0.4,1.6-0.4
		c0.5,0,0.9,0.1,1.3,0.3c0.4,0.2,0.7,0.5,1,0.8c0.3,0.4,0.5,0.8,0.7,1.4c0.2,0.5,0.2,1.2,0.2,1.9c0,0.6-0.1,1.2-0.3,1.8
		s-0.4,1-0.7,1.4s-0.7,0.7-1.2,0.9s-1,0.3-1.6,0.3c-0.5,0-1-0.1-1.4-0.3s-0.7-0.4-1-0.7v3.8H-269.8z M-266,839.4
		c-0.5,0-0.9,0.1-1.3,0.3s-0.7,0.5-1,1v4.2c0.3,0.4,0.6,0.6,0.9,0.8c0.3,0.2,0.7,0.2,1.1,0.2c0.8,0,1.4-0.3,1.8-0.9s0.6-1.4,0.6-2.4
		c0-0.6,0-1-0.1-1.4c-0.1-0.4-0.2-0.7-0.4-1c-0.2-0.3-0.4-0.4-0.7-0.6S-265.6,839.4-266,839.4z"/>
	<path class="st0" d="M-257,838.2c0.5,0,1,0.1,1.4,0.3s0.8,0.4,1.1,0.7s0.6,0.7,0.7,1.2c0.2,0.5,0.3,1,0.3,1.6c0,0.2,0,0.4-0.1,0.5
		c-0.1,0.1-0.1,0.1-0.3,0.1h-5.7c0,0.5,0.1,1,0.2,1.4c0.1,0.4,0.3,0.7,0.6,1c0.2,0.3,0.5,0.5,0.8,0.6c0.3,0.1,0.7,0.2,1.1,0.2
		c0.4,0,0.7,0,1-0.1c0.3-0.1,0.5-0.2,0.7-0.3c0.2-0.1,0.4-0.2,0.5-0.3s0.2-0.1,0.3-0.1c0.1,0,0.2,0,0.3,0.1l0.4,0.6
		c-0.2,0.2-0.4,0.4-0.7,0.6s-0.5,0.3-0.8,0.4c-0.3,0.1-0.6,0.2-0.9,0.2s-0.6,0.1-0.9,0.1c-0.6,0-1.1-0.1-1.6-0.3
		c-0.5-0.2-0.9-0.5-1.3-0.9c-0.4-0.4-0.7-0.9-0.9-1.4c-0.2-0.6-0.3-1.2-0.3-2c0-0.6,0.1-1.2,0.3-1.7c0.2-0.5,0.4-1,0.8-1.4
		c0.3-0.4,0.8-0.7,1.3-0.9C-258.2,838.3-257.6,838.2-257,838.2z M-257,839.3c-0.7,0-1.3,0.2-1.7,0.6c-0.4,0.4-0.7,1-0.8,1.8h4.7
		c0-0.4,0-0.7-0.1-1s-0.2-0.5-0.4-0.8c-0.2-0.2-0.4-0.4-0.7-0.5C-256.3,839.4-256.6,839.3-257,839.3z"/>
	<path class="st0" d="M-251.5,847v-8.6h0.9c0.2,0,0.3,0,0.3,0.1s0.1,0.2,0.1,0.3l0.1,1.3c0.3-0.6,0.7-1.1,1.1-1.4s0.9-0.5,1.5-0.5
		c0.2,0,0.5,0,0.6,0.1s0.4,0.1,0.5,0.2l-0.2,1.1c0,0.1-0.1,0.2-0.3,0.2c-0.1,0-0.2,0-0.4-0.1s-0.4-0.1-0.7-0.1c-0.5,0-1,0.2-1.3,0.5
		c-0.4,0.3-0.7,0.8-0.9,1.3v5.5H-251.5z"/>
</g>
<path id="XMLID_7_" class="st1" d="M-74.1,391.7L-74.1,391.7l-68.8,0v0c-5.2,0.3-9.4,4.6-9.4,9.9c0,4.8,3.5,8.9,8.1,9.8
	c1,0.2,1.9-0.6,1.9-1.6c0-0.8-0.5-1.4-1.3-1.6c-3.1-0.6-5.4-3.3-5.4-6.6c0-3.7,3-6.7,6.7-6.7h4.1v40.7c0,0.9,0.7,1.6,1.6,1.6
	c0.9,0,1.6-0.7,1.6-1.6v-28.5c0-3,2.4-5.4,5.4-5.4c3,0,5.4,2.4,5.4,5.4l0,0v43.7c0,0.9,0.7,1.6,1.6,1.6c0.9,0,1.6-0.7,1.6-1.6v-43.7
	l0,0c0-3,2.4-5.4,5.4-5.4s5.4,2.4,5.4,5.4v44c0,0.9,0.7,1.6,1.6,1.6c0.9,0,1.6-0.7,1.6-1.6v-44c0-3,2.4-5.4,5.4-5.4
	c3,0,5.4,2.4,5.4,5.4v43.7c0,0.9,0.7,1.6,1.6,1.6c0.9,0,1.6-0.7,1.6-1.6v-43.7c0-3,2.4-5.4,5.4-5.4c3,0,5.4,2.4,5.4,5.4v28.5
	c0,0.9,0.7,1.6,1.6,1.6c0.9,0,1.6-0.7,1.6-1.6v-40.7h3.7c3.7,0,6.7,3,6.7,6.7c0,3.3-2.3,6-5.4,6.6c-0.8,0.1-1.3,0.8-1.3,1.6
	c0,1,0.9,1.8,1.9,1.6c4.6-0.9,8.1-4.9,8.1-9.8C-65,396.4-69,392.1-74.1,391.7z M-81.9,400.4c-1.5-1.2-3.4-1.9-5.4-1.9
	c-2.9,0-5.5,1.4-7.1,3.7c-1.6-2.2-4.1-3.7-7.1-3.7s-5.5,1.4-7.1,3.7c-1.6-2.2-4.1-3.7-7.1-3.7s-5.5,1.4-7.1,3.7
	c-1.6-2.2-4.1-3.7-7.1-3.7c-2.1,0-4,0.7-5.4,1.9v-5.5h53.3V400.4z"/>
</svg>
