<?xml version="1.0" encoding="utf-8"?>
<!-- Generator: Adobe Illustrator 22.1.0, SVG Export Plug-In . SVG Version: 6.00 Build 0)  -->
<svg version="1.1" id="Camada_1" xmlns="http://www.w3.org/2000/svg" xmlns:xlink="http://www.w3.org/1999/xlink" x="0px" y="0px"
	 viewBox="0 0 210 148" style="enable-background:new 0 0 210 148;" xml:space="preserve">
<style type="text/css">
	.st0{fill:#FFFFFF;fill-opacity:0.9;}
</style>
<path class="st0" d="M187.9,0.1V0H22.8V0C9.5,0.8-0.7,12.1,0,25.4c0.6,11,8.6,20.2,19.4,22.3c2.1,0.4,4.1-1.1,4.5-3.2
	c0.3-2.1-1-4.1-3.1-4.5C12,38.3,6.3,29.7,8.1,20.9c1.5-7.6,8.2-13,15.9-13.1h8.9v98.8c-0.1,2.2,1.5,4,3.7,4.1s4-1.5,4.1-3.7
	c0-0.1,0-0.3,0-0.4V37.5c0-7.3,5.9-13.2,13.2-13.2S67,30.2,67,37.5v106c-0.1,2.2,1.5,4,3.7,4.1s4-1.5,4.1-3.7c0-0.1,0-0.3,0-0.4
	v-106c0-7.3,5.9-13.2,13.2-13.2s13.2,5.9,13.2,13.2v106.6c-0.1,2.2,1.5,4,3.7,4.1s4-1.5,4.1-3.7c0-0.1,0-0.3,0-0.4V37.5
	c0-7.3,5.9-13.2,13.2-13.2s13.2,5.9,13.2,13.2v106c-0.1,2.2,1.5,4,3.7,4.1s4-1.5,4.1-3.7c0-0.1,0-0.3,0-0.4v-106
	c0-7.3,5.9-13.2,13.2-13.2s13.2,5.9,13.2,13.2v69.1c0,2.2,1.7,3.9,3.9,3.9s3.9-1.7,3.9-3.9V7.8h8.9c9,0,16.2,7.4,16.2,16.4
	c0,7.7-5.5,14.4-13.1,15.9c-2.1,0.4-3.5,2.5-3,4.6c0.4,2.1,2.4,3.4,4.5,3.1c13.1-2.6,21.6-15.3,19-28.3C207.5,8.9,198.7,1,187.9,0.1
	z M169.2,21.1c-8.9-7.3-22-5.9-29.3,3c-0.3,0.4-0.6,0.8-0.9,1.2c-6.6-9.4-19.6-11.7-29-5.1c-2,1.4-3.7,3.1-5.1,5.1
	c-6.6-9.4-19.6-11.7-29-5.1c-2,1.4-3.7,3.1-5.1,5.1c-6.6-9.4-19.6-11.7-29-5.1c-0.4,0.3-0.8,0.6-1.2,0.9V7.8h128.6L169.2,21.1
	L169.2,21.1z"/>
</svg>
